<svg xmlns="http://www.w3.org/2000/svg" height="20" viewBox="0 -960 960 960" width="20"><path d="M258.093-265.5Q312.5-300 365-316.5T480-333q62.5 0 115 16.5t107.5 51q41.5-41.5 64.25-96.149 22.75-54.648 22.75-118.25 0-128.776-90.48-219.189Q608.541-789.5 479.77-789.5q-128.77 0-219.02 90.412-90.25 90.413-90.25 219.189 0 63.602 22.75 118.25Q216-307 258.093-265.5ZM480.141-435Q431-435 397-468.859q-34-33.86-34-83Q363-601 396.859-635q33.86-34 83-34Q529-669 563-635.141q34 33.86 34 83Q597-503 563.141-469q-33.86 34-83 34Zm.135 282q-67.683 0-127.591-25.263-59.909-25.263-104.547-70Q203.5-293 178.25-352.796 153-412.591 153-480.708q0-68.199 25.263-127.357 25.263-59.159 70-103.797Q293-756.5 352.796-781.75 412.591-807 480.708-807q68.199 0 127.357 25.263 59.159 25.263 103.797 70Q756.5-667 781.75-607.732 807-548.464 807-480.276q0 67.683-25.263 127.591-25.263 59.909-70 104.547Q667-203.5 607.732-178.25 548.464-153 480.276-153Zm-.306-17.5q54.53 0 110.28-21.25T689-251q-44-29.5-96.72-47t-112.19-17.5q-59.47 0-113.78 16T271-251q43 38 98.72 59.25t110.25 21.25Zm.03-282q40.5 0 70-29.5t29.5-70q0-40.5-29.5-70t-70-29.5q-40.5 0-70 29.5t-29.5 70q0 40.5 29.5 70t70 29.5Zm0-99.5Zm0 304Z"/></svg>